<?xml version="1.0" standalone="no"?>
<!DOCTYPE svg PUBLIC "-//W3C//DTD SVG 20010904//EN"
 "http://www.w3.org/TR/2001/REC-SVG-20010904/DTD/svg10.dtd">
<svg version="1.0" xmlns="http://www.w3.org/2000/svg"
 width="1024.000000pt" height="1024.000000pt" viewBox="0 0 1024.000000 1024.000000"
 preserveAspectRatio="xMidYMid meet">

<g transform="translate(0.000000,1024.000000) scale(0.100000,-0.100000)"
fill="#000000" stroke="none">
<path d="M4965 9939 c-628 -70 -1139 -557 -1240 -1184 -8 -49 -15 -118 -15
-152 0 -35 -3 -63 -6 -63 -4 0 -32 24 -63 53 -175 161 -437 287 -694 334 -124
23 -361 22 -482 -1 -291 -55 -530 -176 -739 -376 -212 -202 -354 -469 -412
-775 -23 -122 -24 -358 0 -485 45 -251 175 -519 334 -691 28 -31 52 -59 52
-63 0 -3 -28 -6 -62 -6 -210 0 -514 -99 -709 -231 -363 -244 -585 -615 -629
-1049 -8 -83 -10 -620 -8 -1935 l4 -1820 21 -92 c70 -293 186 -507 382 -704
202 -201 433 -324 726 -385 87 -18 202 -19 3695 -19 3493 0 3608 1 3695 19
293 61 524 184 726 385 196 197 312 411 382 704 l21 92 4 1810 c3 1928 3 1970
-45 2157 -149 593 -670 1031 -1265 1065 -54 3 -98 8 -98 10 0 3 25 33 56 66
158 174 285 440 330 687 24 127 23 363 0 485 -46 245 -132 437 -282 630 -362
468 -990 658 -1553 469 -184 -61 -367 -166 -492 -281 -31 -29 -59 -53 -63 -53
-3 0 -6 28 -6 63 0 154 -53 364 -135 534 -187 391 -521 665 -935 767 -176 43
-325 53 -495 35z m351 -669 c152 -39 315 -147 409 -271 134 -178 187 -416 139
-632 -21 -95 -101 -259 -158 -324 l-46 -51 0 -784 0 -783 554 554 553 553 7
67 c9 100 31 176 83 281 40 82 60 109 142 190 135 135 258 196 443 220 157 21
344 -18 485 -101 85 -50 220 -189 270 -279 65 -117 95 -231 96 -370 1 -141
-17 -219 -81 -350 -39 -81 -60 -109 -141 -191 -82 -82 -110 -102 -191 -142
-105 -52 -181 -74 -281 -83 l-67 -7 -553 -553 -554 -554 783 0 784 0 51 46
c65 57 229 137 324 158 102 23 251 21 349 -4 320 -82 542 -341 578 -677 l7
-63 -4181 0 -4181 0 7 63 c52 475 485 787 943 677 100 -24 237 -93 308 -155
l51 -45 784 0 783 0 -554 554 -553 553 -67 7 c-100 9 -176 31 -281 83 -79 39
-109 61 -186 137 -135 134 -200 265 -225 450 -20 156 19 342 102 482 48 82
180 213 264 262 147 86 318 123 479 103 185 -24 317 -89 452 -225 76 -77 98
-107 137 -186 52 -105 74 -181 83 -281 l7 -67 553 -553 554 -554 0 783 0 784
-46 51 c-57 65 -137 229 -158 324 -60 275 41 574 252 749 196 161 443 216 688
154z m-2444 -4451 c247 -49 449 -158 634 -343 173 -173 286 -373 338 -598 18
-80 39 -265 31 -278 -10 -16 -725 -13 -729 3 -2 6 -8 43 -14 81 -15 97 -67
198 -141 272 -279 283 -752 159 -865 -225 -20 -68 -21 -198 -1 -270 34 -129
136 -261 243 -315 61 -31 179 -60 307 -76 286 -37 541 -129 716 -260 133 -99
271 -266 349 -420 212 -421 170 -931 -107 -1305 -459 -619 -1350 -688 -1892
-145 -216 216 -337 482 -366 808 l-7 72 371 0 371 0 0 -37 c0 -52 24 -135 55
-198 58 -115 180 -217 304 -255 71 -22 205 -27 281 -9 127 29 266 137 327 255
107 203 75 447 -78 602 -93 93 -182 127 -474 182 -372 69 -605 173 -781 348
-442 438 -494 1135 -124 1631 292 391 772 574 1252 480z m1747 -16 c5 -27 121
-587 258 -1245 136 -658 250 -1195 252 -1192 2 2 120 561 261 1241 l256 1238
367 3 c202 1 367 1 367 -1 0 -2 -65 -318 -145 -703 -80 -384 -251 -1210 -380
-1834 -130 -624 -263 -1270 -298 -1435 l-62 -300 -368 -3 c-202 -1 -367 0
-367 2 0 2 -32 156 -70 343 -39 186 -114 545 -166 798 -92 447 -166 804 -489
2360 -85 412 -155 755 -155 762 0 10 74 13 364 13 l364 0 11 -47z m3235 21
c315 -51 616 -245 805 -518 133 -193 221 -452 221 -652 l0 -64 -363 0 -363 0
-11 76 c-30 210 -198 391 -401 433 -263 55 -524 -97 -605 -353 l-22 -71 0
-970 c0 -925 1 -973 19 -1025 60 -176 182 -300 344 -350 80 -25 215 -27 293
-4 162 48 291 169 351 329 20 56 22 79 26 373 l4 312 -261 0 -261 0 0 370 0
370 625 0 625 0 0 -688 c0 -767 -1 -788 -67 -976 -43 -123 -69 -177 -141 -286
-181 -274 -478 -471 -810 -537 -117 -23 -356 -23 -467 1 -260 56 -466 166
-645 346 -139 139 -233 288 -298 472 -69 195 -65 126 -69 1253 -3 890 -2 1033
12 1119 64 405 315 747 682 930 243 121 493 156 777 110z"/>
</g>
</svg>
